<?xml version="1.0" standalone="no"?>
<!DOCTYPE svg PUBLIC "-//W3C//DTD SVG 20010904//EN"
 "http://www.w3.org/TR/2001/REC-SVG-20010904/DTD/svg10.dtd">
<svg version="1.0" xmlns="http://www.w3.org/2000/svg"
 width="204.000000pt" height="204.000000pt" viewBox="0 0 204.000000 204.000000"
 preserveAspectRatio="xMidYMid meet">
<metadata>
Created by potrace 1.11, written by Peter Selinger 2001-2013
</metadata>
<g transform="translate(0.000000,204.000000) scale(0.100000,-0.100000)"
fill="#000000" stroke="none">
<path d="M0 1020 l0 -1020 1020 0 1020 0 0 1020 0 1020 -1020 0 -1020 0 0
-1020z m1960 0 l0 -940 -940 0 -940 0 0 940 0 940 940 0 940 0 0 -940z"/>
<path d="M590 1681 c0 -5 -26 -12 -57 -15 -92 -11 -93 -12 -93 -61 0 -41 -1
-43 -35 -49 -33 -7 -35 -9 -35 -47 0 -26 -5 -42 -15 -45 -10 -4 -15 -20 -15
-50 0 -32 -4 -44 -15 -44 -8 0 -15 -4 -15 -10 0 -5 -9 -10 -20 -10 -19 0 -20
-7 -20 -100 0 -60 -4 -100 -10 -100 -6 0 -10 -58 -10 -155 0 -97 4 -155 10
-155 6 0 10 -22 10 -50 0 -43 3 -50 20 -50 13 0 20 -7 20 -20 0 -11 7 -20 15
-20 9 0 15 -10 15 -26 0 -14 7 -32 15 -40 9 -9 15 -34 15 -60 0 -32 4 -44 15
-44 8 0 15 -4 15 -10 0 -5 9 -10 20 -10 16 0 20 -7 20 -36 0 -19 6 -41 13 -48
42 -42 462 -47 475 -6 2 5 15 10 28 10 21 0 24 4 24 40 0 29 4 40 15 40 8 0
15 4 15 9 0 6 15 11 33 13 l32 3 0 265 0 265 -192 3 -193 2 0 -75 0 -75 110 0
110 0 0 -40 c0 -22 5 -40 10 -40 6 0 10 -37 10 -90 0 -73 -3 -90 -15 -90 -8 0
-15 -4 -15 -10 0 -5 -13 -10 -30 -10 -16 0 -30 -4 -30 -10 0 -5 -11 -10 -25
-10 -22 0 -25 -4 -25 -40 l0 -40 -80 0 -80 0 0 40 c0 40 0 40 -38 40 -26 0
-42 6 -52 20 -8 11 -26 20 -41 20 -24 0 -28 5 -34 40 -4 22 -11 40 -16 40 -5
0 -9 20 -9 45 0 33 -4 45 -15 45 -13 0 -15 29 -15 205 0 176 2 205 15 205 11
0 15 12 15 51 0 31 6 56 15 65 8 9 15 29 15 45 0 22 5 29 20 29 11 0 20 6 20
14 0 9 15 17 40 21 36 6 40 10 40 36 l0 29 100 0 100 0 0 -29 c0 -26 4 -29 45
-35 28 -5 45 -12 45 -21 0 -7 4 -15 10 -17 5 -1 13 -42 16 -90 8 -101 9 -102
101 -92 l63 6 0 89 0 89 -29 0 c-24 0 -29 5 -35 31 -3 17 -6 44 -6 59 0 16 -7
30 -15 34 -10 4 -15 20 -15 50 0 49 11 43 -117 62 -24 4 -43 11 -43 15 0 5
-49 9 -110 9 -60 0 -110 -4 -110 -9z"/>
<path d="M1240 1035 l0 -635 60 0 60 0 0 330 c0 287 2 330 15 330 10 0 15 10
15 34 0 24 5 36 18 40 50 14 87 17 137 11 55 -7 55 -8 55 -41 0 -24 5 -34 15
-34 13 0 15 -44 15 -335 l0 -335 60 0 60 0 0 375 c0 327 -2 375 -15 375 -11 0
-15 12 -15 46 0 37 -4 47 -20 51 -16 4 -20 14 -20 53 0 45 -2 48 -31 54 -17 3
-69 6 -114 6 -45 0 -97 -3 -114 -6 -30 -6 -31 -9 -31 -55 0 -37 -4 -49 -15
-49 -13 0 -15 30 -15 210 l0 210 -60 0 -60 0 0 -635z"/>
</g>
</svg>
